<svg width="39" height="39" viewBox="0 0 39 39" fill="none" xmlns="http://www.w3.org/2000/svg">
<path d="M6.4999 16.25L5.35102 17.3989L4.20215 16.25L5.35102 15.1011L6.4999 16.25ZM34.1249 29.25C34.1249 29.681 33.9537 30.0943 33.6489 30.3991C33.3442 30.7038 32.9309 30.875 32.4999 30.875C32.0689 30.875 31.6556 30.7038 31.3508 30.3991C31.0461 30.0943 30.8749 29.681 30.8749 29.25H34.1249ZM13.476 25.5239L5.35102 17.3989L7.64877 15.1011L15.7738 23.2261L13.476 25.5239ZM5.35102 15.1011L13.476 6.97614L15.7738 9.27388L7.64877 17.3989L5.35102 15.1011ZM6.4999 14.625H22.7499V17.875H6.4999V14.625ZM34.1249 26V29.25H30.8749V26H34.1249ZM22.7499 14.625C25.7667 14.625 28.66 15.8234 30.7932 17.9567C32.9265 20.0899 34.1249 22.9832 34.1249 26H30.8749C30.8749 23.8451 30.0189 21.7785 28.4951 20.2548C26.9714 18.731 24.9048 17.875 22.7499 17.875V14.625Z" fill="black"/>
</svg>
