<svg width="25" height="23" viewBox="0 0 25 23" fill="none" xmlns="http://www.w3.org/2000/svg">
<g clip-path="url(#clip0_646_2272)">
<path fill-rule="evenodd" clip-rule="evenodd" d="M12.5 23.0001C14.5323 23.0003 16.5268 22.4578 18.2714 21.4302C20.016 20.4027 21.4457 18.9285 22.4085 17.1642C23.3713 15.4 23.8312 13.4116 23.7395 11.4103C23.6478 9.40903 23.0078 7.46964 21.8875 5.79816L12.9438 15.5937C12.526 16.0513 11.9496 16.3383 11.328 16.398C10.7064 16.4577 10.0846 16.286 9.58501 15.9165L5.50001 12.8965C5.23479 12.7005 5.05945 12.4086 5.01257 12.0851C4.96569 11.7616 5.05109 11.433 5.25001 11.1715C5.44892 10.9101 5.74504 10.7373 6.07323 10.6911C6.40142 10.6448 6.73479 10.729 7.00001 10.9251L11.085 13.9451L20.2675 3.88957C18.9373 2.63785 17.316 1.72667 15.5456 1.23581C13.7753 0.744948 11.9099 0.689378 10.1127 1.07397C8.31548 1.45855 6.64135 2.27157 5.23685 3.44182C3.83234 4.61208 2.74031 6.10389 2.05635 7.78664C1.3724 9.46939 1.11738 11.2918 1.31363 13.0942C1.50988 14.8966 2.15141 16.6241 3.18206 18.1255C4.2127 19.6269 5.60102 20.8563 7.22547 21.7061C8.84992 22.5559 10.661 23.0002 12.5 23.0001Z" fill="black"/>
</g>
<defs>
<clipPath id="clip0_646_2272">
<rect width="25" height="23" fill="white"/>
</clipPath>
</defs>
</svg>
