<svg width="168" height="84" viewBox="0 0 168 84" fill="none" xmlns="http://www.w3.org/2000/svg">
<g clip-path="url(#clip0_770_3527)">
<path d="M87.3937 76.9809C88.3638 76.5803 89.2445 75.9933 89.9851 75.2535L160.23 19.0052C163.004 16.784 163.226 12.6426 160.705 10.138C158.566 8.01283 155.175 7.82342 152.812 9.69712L84.3206 64.0172L15.8243 9.7011C13.4639 7.8294 10.077 8.01792 7.93891 10.14C5.41709 12.643 5.63805 16.7842 8.4119 19.0047L78.6802 75.2535C79.4208 75.9933 80.3015 76.5803 81.2715 76.9809C82.2416 77.3815 83.2819 77.5878 84.3326 77.5878C85.3833 77.5878 86.4236 77.3815 87.3937 76.9809Z" fill="white"/>
</g>
<defs>
<clipPath id="clip0_770_3527">
<rect width="84" height="168" fill="white" transform="matrix(0 1 -1 0 168 0)"/>
</clipPath>
</defs>
</svg>
